<svg width="100%" height="100%" viewBox="0 0 1920 1080" xmlns="http://www.w3.org/2000/svg">
  <defs>
    <linearGradient id="gradient" x1="0%" y1="0%" x2="100%" y2="100%">
      <stop offset="0%" style="stop-color:#8e2de2;stop-opacity:1" />
      <stop offset="100%" style="stop-color:#4a00e0;stop-opacity:1" />
    </linearGradient>
  </defs>

  <rect width="100%" height="100%" fill="url(#gradient)" />

  <g transform="translate(100, 100) scale(0.8)">
    <circle cx="100" cy="100" r="50" fill="#64b5f6" />
    <rect x="150" y="80" width="80" height="40" rx="10" fill="#bbdefb" />
    <rect x="150" y="140" width="80" height="40" rx="10" fill="#bbdefb" />
    <circle cx="200" cy="220" r="30" fill="#90caf9" />
    <polygon points="250,200 280,230 250,260" fill="#e3f2fd" />
  </g>

  <g transform="translate(400, 200) scale(0.7)">
    <rect x="0" y="0" width="100" height="100" rx="15" fill="#a5d6a7" />
    <circle cx="50" cy="120" r="40" fill="#c8e6c9" />
    <polygon points="120,50 150,80 120,110" fill="#e8f5e9" />
    <rect x="150" y="20" width="50" height="80" rx="10" fill="#b2dfdb" />
  </g>

  <g transform="translate(700, 500) scale(0.9)">
    <circle cx="50" cy="50" r="60" fill="#ffcdd2" />
    <rect x="100" y="20" width="70" height="40" rx="8" fill="#ffebee" />
    <rect x="100" y="80" width="70" height="40" rx="8" fill="#ffebee" />
    <polygon points="180,50 210,80 180,110" fill="#fce4ec" />
    <circle cx="230" cy="50" r="25" fill="#ef9a9a" />
  </g>

  <g transform="translate(1100, 100) scale(0.6)">
    <rect x="0" y="0" width="120" height="60" rx="12" fill="#ffb74d" />
    <rect x="20" y="60" width="80" height="80" rx="40" fill="#ffe0b2" />
    <polygon points="140,30 170,60 140,90" fill="#fff3e0" />
    <circle cx="190" cy="60" r="30" fill="#ffcc80" />
    <rect x="220" y="30" width="60" height="60" rx="10" fill="#ffecb3" />
  </g>

  <g transform="translate(1400, 600) scale(0.8)">
    <circle cx="80" cy="80" r="70" fill="#81c784" />
    <rect x="150" y="40" width="90" height="50" rx="10" fill="#a5d6a7" />
    <rect x="150" y="100" width="90" height="50" rx="10" fill="#a5d6a7" />
    <polygon points="250,75 280,105 250,135" fill="#c8e6c9" />
    <circle cx="300" cy="100" r="35" fill="#66bb6a" />
  </g>

  <g transform="translate(1600, 200) scale(0.7)">
    <rect x="0" y="0" width="110" height="70" rx="15" fill="#9575cd" />
    <circle cx="55" cy="80" r="45" fill="#b39ddb" />
    <polygon points="120,40 150,70 120,100" fill="#d1c4e9" />
    <rect x="160" y="20" width="55" height="80" rx="12" fill="#ba68c8" />
  </g>
</svg>